<?xml version="1.0" encoding="UTF-8"?>
<svg id="Warstwa_1" xmlns="http://www.w3.org/2000/svg" version="1.1" viewBox="0 0 800 800">
  <!-- Generator: Adobe Illustrator 29.8.4, SVG Export Plug-In . SVG Version: 2.1.1 Build 6)  -->
  <defs>
    <style>
      .st0 {
        fill: none;
        stroke: #fff;
        stroke-linecap: round;
        stroke-linejoin: round;
        stroke-width: 50px;
      }
    </style>
  </defs>
  <path class="st0" d="M399.8,121c119.8,0,217,97.2,217,217v130.2l39.3,47.1c33.6,40.4,5,101.7-47.6,101.7H191.3c-52.6,0-81.2-61.2-47.6-101.7l39.3-47.1v-130.2c0-119.8,97.1-217,217-217h-.1ZM399.8,121v-62M524,617c0,16.2-3.2,32.4-9.4,47.5-6.2,15-15.4,28.8-26.9,40.2-11.5,11.5-25.2,20.7-40.2,26.9-15,6.2-31.1,9.4-47.5,9.4s-32.4-3.2-47.5-9.4c-15-6.2-28.8-15.4-40.2-26.9-11.5-11.5-20.7-25.2-26.9-40.2-6.2-15-9.4-31.1-9.4-47.5h248Z"/>
</svg>