<?xml version="1.0" encoding="UTF-8"?>
<svg id="Warstwa_1" xmlns="http://www.w3.org/2000/svg" version="1.1" viewBox="0 0 800 800">
  <!-- Generator: Adobe Illustrator 29.8.4, SVG Export Plug-In . SVG Version: 2.1.1 Build 6)  -->
  <defs>
    <style>
      .st0 {
        fill: #fff;
        fill-rule: evenodd;
      }

      .st1 {
        fill: none;
      }
    </style>
  </defs>
  <g id="_页面-1" data-name="页面-1">
    <g id="Building">
      <g id="home_1_line">
        <path id="MingCute" class="st1" d="M800,0v800H0V0h800ZM419.8,775.3h-.4c0,0-2.4,1.2-2.4,1.2h-.6c0,.1-.5,0-.5,0l-2.4-1.2c-.3-.1-.6,0-.8.2v.4c-.1,0-.7,14.2-.7,14.2l.2.7.4.4,3.5,2.5h.5c0,.1.4,0,.4,0l3.5-2.5.4-.5h0v-.6c.1,0-.5-14.2-.5-14.2,0-.3-.3-.6-.5-.6h0ZM428.6,771.5h-.5c0,0-6.2,3.1-6.2,3.1l-.3.3h0v.4c0,0,.5,14.3.5,14.3l.2.4h0l.3.2,6.7,3.1c.4.1.8,0,.9-.3v-.5c.1,0-1-20.5-1-20.5,0-.4-.3-.7-.6-.7h0ZM404.8,771.6c-.3-.2-.7,0-.9.2l-.2.5-1.1,20.5c0,.4.2.7.6.8h.5s6.7-3.1,6.7-3.1l.3-.3h0v-.4c.1,0,.7-14.3.7-14.3v-.4h-.1l-.3-.3-6.2-3.1Z"/>
        <path id="_形状" data-name="形状" class="st0" d="M360,88.3c23.7-17.8,56.3-17.8,80,0l233.3,175c16.8,12.6,26.7,32.3,26.7,53.3v316.7c0,36.8-29.8,66.7-66.7,66.7H166.7c-36.8,0-66.7-29.8-66.7-66.7v-316.7c0-21,9.9-40.7,26.7-53.3l233.3-175ZM400,141.7l-233.3,175v316.7h466.7v-316.7l-233.3-175Z"/>
      </g>
    </g>
  </g>
</svg>