<?xml version="1.0" encoding="UTF-8"?>
<svg id="Warstwa_1" xmlns="http://www.w3.org/2000/svg" version="1.1" viewBox="0 0 800 800">
  <!-- Generator: Adobe Illustrator 29.8.4, SVG Export Plug-In . SVG Version: 2.1.1 Build 6)  -->
  <defs>
    <style>
      .st0 {
        fill: #fff;
      }
    </style>
  </defs>
  <path class="st0" d="M400,750c-47.2,0-93.1-9.3-136.2-27.5-41.7-17.6-79.1-42.9-111.2-75s-57.4-69.6-75-111.2c-18.3-43.2-27.5-89-27.5-136.2s9.3-93.1,27.5-136.2c17.6-41.7,42.9-79.1,75-111.2s69.6-57.4,111.2-75c43.2-18.3,89-27.5,136.2-27.5s93.1,9.3,136.2,27.5c41.7,17.6,79.1,42.9,111.2,75s57.4,69.6,75,111.2c18.3,43.2,27.5,89,27.5,136.2s-9.3,93.1-27.5,136.2c-17.6,41.7-42.9,79.1-75,111.2s-69.6,57.4-111.2,75c-43.2,18.3-89,27.5-136.2,27.5ZM300.4,425c2.2,74.3,14.3,143.1,34.6,195.8,18.8,48.8,43.7,79.2,65,79.2s46.3-30.3,65-79.2c20.3-52.7,32.4-121.5,34.6-195.8h-199.3ZM549.6,425c-2.3,80.4-15.5,155.6-37.9,213.8-6.9,18-14.6,33.9-22.8,47.8,114.5-35.6,199.9-138.1,210.1-261.6h-149.3ZM101,425c10.2,123.5,95.6,226,210.1,261.6-8.3-13.8-15.9-29.8-22.8-47.8-22.4-58.2-35.7-133.3-37.9-213.8H101ZM549.6,375h149.3c-10.2-123.5-95.6-226-210.1-261.6,8.3,13.8,15.9,29.8,22.8,47.8,22.4,58.2,35.7,133.3,37.9,213.8ZM300.4,375h199.3c-2.2-74.3-14.3-143.1-34.6-195.8-18.8-48.8-43.7-79.2-65-79.2s-46.3,30.3-65,79.2c-20.3,52.7-32.4,121.5-34.6,195.8ZM101,375h149.3c2.3-80.4,15.5-155.6,37.9-213.8,6.9-18,14.6-33.9,22.8-47.8-114.5,35.6-199.9,138.1-210.1,261.6Z"/>
</svg>